ply
format ascii 1.0
comment Created by Blender 2.80 (sub 75) - www.blender.org, source file: 'C3P0.blend'
element vertex 172
property float x
property float y
property float z
property float nx
property float ny
property float nz
property float s
property float t
element face 232
property list uchar uint vertex_indices
end_header
28.979502 -5.093506 133.414993 -0.639668 0.660115 -0.393750 0.972170 0.116650
29.384199 -4.518406 133.721695 -0.116672 0.991882 0.050325 0.977885 0.116650
29.981699 -5.123206 131.737106 -0.614063 0.661580 -0.430311 0.972170 0.128578
30.559799 -4.301606 132.175308 -0.078005 0.996948 0.000183 0.977783 0.128578
33.394699 -5.194406 127.304993 -0.588763 0.661794 -0.464034 0.972170 0.161978
33.972801 -4.372806 127.743195 -0.041414 0.997986 -0.047945 0.977723 0.161978
34.639599 -5.220406 125.688507 -0.588763 0.661794 -0.464064 0.972170 0.174160
35.217701 -4.398806 126.126694 -0.041932 0.997925 -0.048341 0.977701 0.174160
34.619701 -5.098206 128.249802 0.791223 0.062044 0.608325 0.983276 0.161978
35.864601 -5.124206 126.633301 0.998199 0.044343 0.040101 0.983276 0.174160
35.286503 -5.945806 126.195099 0.387555 -0.820673 -0.419813 0.989180 0.174160
35.252102 -5.172306 126.160896 0.611072 -0.007813 -0.791498 0.986175 0.177070
34.639599 -5.220406 125.688507 0.611072 -0.007813 -0.791498 0.989180 0.180232
35.217701 -4.398806 126.126694 0.611072 -0.007813 -0.791498 0.983276 0.180232
29.837000 -5.026206 134.076294 0.239326 0.053468 0.969451 0.983276 0.116650
31.206699 -5.027006 132.681900 0.753960 0.063509 0.653829 0.983276 0.128578
34.041603 -5.919806 127.811600 0.041414 -0.997986 0.047914 0.989180 0.161978
34.639599 -5.220406 125.688507 -0.530198 -0.749565 -0.396252 0.994812 0.174160
33.394699 -5.194406 127.304993 -0.530198 -0.749565 -0.396252 0.994812 0.161978
30.628601 -5.848606 132.243698 0.007599 -0.995697 0.092105 0.989180 0.128578
29.981699 -5.123206 131.737106 -0.553514 -0.748558 -0.365032 0.994812 0.128578
28.979502 -5.093506 133.414993 -0.577197 -0.746239 -0.331553 0.994812 0.116650
29.432301 -5.601305 133.769592 -0.345073 -0.776940 0.526505 0.989180 0.116650
29.408300 -5.059906 133.745605 -0.611042 0.007843 0.791528 0.986213 0.113517
28.979502 -5.093506 133.414993 -0.610950 0.007843 0.791589 0.989180 0.110653
29.384199 -4.518406 133.721695 -0.611042 0.007752 0.791559 0.983276 0.110653
27.658501 6.145494 135.446793 0.065279 -0.997711 0.016449 0.982764 0.351264
26.828701 6.108994 136.526505 0.065584 -0.997681 0.016572 0.994166 0.351264
27.446100 6.128894 135.283005 -0.037690 -0.555956 -0.830317 0.982764 0.352984
26.616299 6.092294 136.362701 -0.792657 -0.590350 0.152043 0.994166 0.352984
27.079498 8.527895 135.514099 -0.178686 0.588885 -0.788171 0.982764 0.373906
27.658501 6.145494 135.446793 0.971221 0.164953 -0.171636 0.980528 0.352984
27.291901 8.544594 135.677902 0.983856 0.158330 -0.083041 0.980528 0.373906
26.873600 8.526094 136.222107 0.790277 0.062044 0.609546 0.970849 0.373906
26.828701 6.108994 136.526505 0.790338 0.062075 0.609485 0.970849 0.352984
26.873600 8.526094 136.222107 -0.612354 0.109958 0.782861 0.996071 0.373906
26.661200 8.509394 136.058289 -0.826960 0.559435 0.055635 0.994166 0.373907
26.828701 6.108994 136.526505 -0.612354 0.109958 0.782861 0.996071 0.352984
26.873600 8.526094 136.222107 -0.065645 0.997681 -0.016541 0.994166 0.375683
27.291901 8.544594 135.677902 -0.065645 0.997681 -0.016541 0.982764 0.375682
29.614500 -1.892106 135.319702 0.141820 0.085269 0.986206 0.723146 0.141434
28.211399 -2.044306 134.970398 -0.596759 0.005158 0.802362 0.710653 0.138340
28.302801 -3.057406 135.044891 -0.406842 -0.622028 0.668966 0.713438 0.134783
27.563599 -3.215306 133.802902 -0.708945 -0.686514 0.161321 0.708601 0.126714
27.472300 -2.202106 133.728500 -0.985809 -0.077914 0.148534 0.704029 0.127290
27.830400 -2.273306 132.321091 -0.797357 -0.115329 -0.592334 0.707191 0.114803
27.921700 -3.286506 132.395508 -0.562609 -0.715629 -0.413862 0.710910 0.117598
29.166901 -3.229106 131.647308 -0.053682 -0.692190 -0.719687 0.718970 0.112802
29.075600 -2.216006 131.572906 -0.141820 -0.085177 -0.986206 0.718231 0.108230
30.570000 -3.077006 131.996506 0.519761 -0.630024 -0.576952 0.728035 0.115095
30.478600 -2.063806 131.922104 0.596759 -0.005097 -0.802393 0.730651 0.111371
31.309000 -2.919106 133.238495 0.821802 -0.565508 -0.069338 0.732833 0.123108
31.217701 -1.906006 133.164093 0.985809 0.077914 -0.148564 0.737227 0.122350
30.951101 -2.848006 134.645905 0.675527 -0.536424 0.505844 0.730582 0.132187
30.859800 -1.834906 134.571396 0.797418 0.115421 0.592273 0.734140 0.134788
29.705799 -2.905306 135.394211 0.166509 -0.559832 0.811670 0.722558 0.137040
29.436401 -3.067206 133.520691 0.089541 -0.993286 0.072970 0.720762 0.124905
20.536501 -1.958006 144.445496 0.212348 -0.952330 0.218879 0.840856 0.827336
23.794300 -2.194406 140.256195 0.212378 -0.952330 0.218879 0.840805 0.798445
22.708801 -1.097006 146.083908 0.430342 -0.815027 0.387982 0.855671 0.827336
25.966702 -1.333306 141.894501 0.431227 -0.819483 0.377422 0.855619 0.798445
25.848400 -2.343406 137.614792 0.212439 -0.952330 0.218848 0.840772 0.780267
28.020800 -1.482306 139.252991 0.435072 -0.813715 0.385388 0.855587 0.780267
30.322098 -2.669006 131.853500 0.212470 -0.952330 0.218818 0.840673 0.739620
32.494499 -1.807906 133.491699 0.433149 -0.816828 0.380963 0.855487 0.739620
35.817501 -2.050006 129.212204 0.516343 -0.838282 0.175054 0.855413 0.704670
33.620701 -2.909306 127.605499 0.402692 -0.907071 -0.122623 0.840600 0.711171
35.807400 -1.878106 128.617401 0.511917 -0.816584 -0.266610 0.853377 0.701687
33.877201 -2.396106 127.281403 0.550737 -0.624775 -0.553453 0.840615 0.708188
33.877201 -2.396106 127.281403 0.392987 -0.623341 -0.676015 0.998600 0.708227
33.620701 -2.909306 127.605499 0.008789 -0.903409 -0.428602 0.998578 0.711210
32.112103 -1.843706 125.745903 0.122440 -0.812952 -0.569262 0.985878 0.701698
31.531200 -2.010105 125.881508 -0.306894 -0.830592 -0.464614 0.983826 0.704677
32.565399 0.236295 122.795700 0.157811 -0.476272 -0.864986 0.969227 0.693345
31.900900 0.190995 122.698105 -0.315073 -0.426130 -0.847987 0.967829 0.696598
32.606800 2.860895 122.634102 0.088351 0.140477 -0.986114 0.952526 0.693345
31.995499 3.041995 122.610603 -0.405835 0.265847 -0.874386 0.952526 0.696598
33.850201 4.893295 123.482391 0.215003 0.394604 -0.893307 0.936345 0.693345
33.396702 5.336095 123.568901 -0.167608 0.684561 -0.709372 0.936345 0.696598
34.773499 5.413295 124.115799 0.367443 0.600513 -0.710166 0.927738 0.693345
34.405403 5.923495 124.375107 0.089602 0.884213 -0.458327 0.927738 0.696598
36.574001 6.027094 126.013603 0.425886 0.877224 -0.221534 0.915722 0.696598
36.693298 5.514294 125.613106 0.597034 0.569628 -0.564806 0.915722 0.693345
37.683098 5.296094 126.899506 0.745354 0.666616 -0.003937 0.906669 0.696598
37.649700 4.857894 126.434799 0.819910 0.385815 -0.422895 0.906669 0.693345
38.931099 2.977395 127.999702 0.951659 0.251869 0.175665 0.890130 0.696598
38.755199 2.803595 127.411697 0.935270 0.132511 -0.328104 0.890130 0.693345
38.836399 0.126394 128.087296 0.894406 -0.438093 0.089633 0.873462 0.696598
38.578400 0.180294 127.468002 0.793695 -0.482162 -0.370769 0.870471 0.693345
30.322098 -2.669006 131.853500 -0.275552 -0.947783 -0.160375 0.998587 0.739658
28.208199 -1.768006 130.161102 -0.490951 -0.803858 -0.335765 0.983826 0.739625
26.960199 0.550894 129.060806 -0.761193 -0.301706 -0.574023 0.967829 0.739612
27.054798 3.401894 128.973206 -0.740684 0.315683 -0.593005 0.952526 0.739620
28.455999 5.695994 129.931610 -0.441389 0.808863 -0.388440 0.936345 0.739620
29.583900 6.156194 130.754807 -0.147191 0.943754 -0.296030 0.927738 0.739620
31.593401 6.205994 132.315308 0.321116 0.944517 0.068667 0.915722 0.739620
32.742397 5.655994 133.262299 0.492355 0.801660 0.338939 0.906697 0.739620
34.040600 3.411594 134.367798 0.780206 0.357341 0.513382 0.890130 0.739620
33.882702 0.481094 134.552902 0.760582 -0.373241 0.531175 0.873462 0.739620
29.473701 0.807694 140.160797 0.679098 -0.374493 0.631275 0.873462 0.780267
27.427200 0.927794 142.909805 0.740196 -0.328257 0.586779 0.873462 0.798445
24.110001 1.197094 147.042099 0.730064 -0.314737 0.606555 0.873462 0.827336
27.524099 3.844294 142.820099 0.758476 0.315653 0.570086 0.890130 0.798445
24.204700 4.048194 146.954498 0.753105 0.306497 0.582080 0.890130 0.827336
26.214500 6.130694 141.665009 0.494461 0.800043 0.339702 0.906747 0.798445
22.956600 6.366994 145.854401 0.501175 0.793603 0.344920 0.906785 0.827336
25.058001 6.678994 140.739899 0.186621 0.957823 0.218390 0.915722 0.798445
21.799799 6.918394 144.916397 0.193976 0.977966 0.076846 0.915722 0.827336
23.084700 6.648294 139.206100 -0.242439 0.961516 -0.129185 0.927738 0.798445
19.839500 7.098294 143.392502 -0.093905 0.979492 -0.178076 0.927738 0.827336
18.670300 6.406994 142.523712 -0.464766 0.777001 -0.424512 0.936345 0.827336
21.928101 6.170594 138.334412 -0.441023 0.808954 -0.388623 0.936345 0.798445
20.527000 3.876494 137.375992 -0.740318 0.315653 -0.593524 0.952526 0.798445
17.269199 4.112794 141.565292 -0.740318 0.315592 -0.593524 0.952526 0.827336
20.432299 1.025494 137.463699 -0.760765 -0.301706 -0.574602 0.967829 0.798437
17.174500 1.261694 141.653000 -0.760765 -0.301706 -0.574602 0.967829 0.827329
18.422400 -1.057106 142.753098 -0.490677 -0.803827 -0.336253 0.983826 0.827341
21.680300 -1.293406 138.563797 -0.490616 -0.803858 -0.336192 0.983826 0.798450
20.536501 -1.958006 144.445496 -0.275307 -0.947813 -0.160619 0.998571 0.827375
23.794300 -2.194406 140.256195 -0.275338 -0.947813 -0.160649 0.998585 0.798484
23.734400 -1.442406 135.922394 -0.490768 -0.803888 -0.335978 0.983826 0.780267
25.848400 -2.343406 137.614792 -0.275430 -0.947813 -0.160527 0.998594 0.780267
22.486401 0.876494 134.822296 -0.760979 -0.301706 -0.574297 0.967829 0.780267
22.581100 3.727494 134.734589 -0.740501 0.315683 -0.593249 0.952526 0.780267
23.982201 6.021594 135.692902 -0.441054 0.809046 -0.388409 0.936345 0.780267
25.130701 6.497494 136.566498 -0.354564 0.877041 -0.324076 0.927738 0.780267
25.730700 7.084295 136.981201 -0.234748 0.944914 -0.228034 0.924282 0.780267
29.957100 6.772094 131.417297 0.084628 0.842128 -0.532548 0.924337 0.742557
30.857101 6.767994 132.116196 0.474990 0.851344 -0.222602 0.918826 0.742557
26.561901 7.072394 137.627197 0.275369 0.946928 0.165654 0.918824 0.780267
23.963400 7.168094 139.300507 -0.369335 0.921995 0.116001 0.924423 0.795507
24.860201 7.155294 139.997604 0.032044 0.919889 0.390790 0.918726 0.795507
27.112400 6.528094 138.106598 0.401502 0.877438 0.262429 0.915722 0.780267
28.268600 5.981694 139.023605 0.498428 0.796442 0.342357 0.906722 0.780267
29.556000 3.679494 140.099503 0.705527 0.365703 0.607013 0.890130 0.780267
31.095999 2.676794 139.225311 0.679006 0.256233 0.687948 0.885756 0.776346
31.048599 1.584494 139.269196 0.655690 -0.286111 0.698691 0.877691 0.776346
33.220200 1.464094 136.473099 0.809931 -0.281899 0.514298 0.877615 0.744178
33.267502 2.556294 136.429291 0.829218 0.250374 0.499680 0.885737 0.744178
29.713800 -4.887806 133.552399 -0.559404 -0.332499 0.759239 0.969393 0.202924
29.039999 -2.349506 134.167603 -0.559526 -0.332499 0.759148 0.962748 0.186841
29.501400 -4.904506 133.388596 -0.715995 -0.697745 0.022340 0.970949 0.202924
28.827599 -2.366106 134.003799 -0.930754 -0.298257 0.211402 0.964922 0.186841
29.919601 -4.886006 132.844406 -0.079653 -0.611835 -0.786920 0.975156 0.202924
29.842299 -2.321406 132.683594 -0.107517 -0.065432 -0.992035 0.975168 0.186841
30.054701 -2.304806 132.847412 0.988983 0.020631 -0.146489 0.976825 0.186841
30.132099 -4.869406 133.008209 0.993652 0.023072 -0.109836 0.976825 0.202924
29.039999 -2.349506 134.167603 0.790307 0.062044 0.609546 0.987075 0.186841
29.713800 -4.887806 133.552399 0.790277 0.062044 0.609546 0.981050 0.202924
30.132099 -4.869406 133.008209 0.065249 -0.997711 0.016419 0.975144 0.204581
29.713800 -4.887806 133.552399 0.065554 -0.997681 0.016511 0.970961 0.204581
26.148302 8.432394 136.062103 -0.737846 0.621937 -0.262154 0.648597 0.900344
26.475800 8.993093 136.470490 -0.508805 0.619983 0.597217 0.654641 0.900344
27.096399 8.859494 134.406998 -0.714377 0.633625 -0.296823 0.648609 0.910643
27.564400 9.660495 134.990601 -0.220252 0.956969 0.188818 0.654611 0.910643
31.422001 10.546494 128.623505 -0.691031 0.643513 -0.329112 0.648453 0.949999
31.889900 11.347494 129.207199 0.184240 0.924802 -0.332804 0.654518 0.949999
32.647301 10.642195 129.568008 0.982177 0.181768 0.047273 0.660646 0.949999
32.034599 10.594395 129.095810 0.583300 0.227454 -0.779748 0.657610 0.953204
32.179401 9.841094 128.984299 0.583270 0.227515 -0.779717 0.660875 0.956351
31.422001 10.546494 128.623505 0.583331 0.227454 -0.779687 0.654405 0.956469
31.422001 10.546494 128.623505 -0.426954 -0.730827 -0.532517 0.672615 0.949999
32.179401 9.841094 128.984299 0.186712 -0.971801 -0.143803 0.666828 0.949999
27.096399 8.859494 134.406998 -0.450514 -0.739586 -0.499985 0.672614 0.910643
27.853901 8.154095 134.767899 0.152654 -0.983367 -0.098148 0.666613 0.910643
26.148302 8.432394 136.062103 -0.474624 -0.747429 -0.464766 0.672592 0.900344
26.678499 7.938694 136.314590 0.116031 -0.991974 -0.049989 0.666647 0.900344
28.321701 8.955294 135.351395 0.755303 0.048555 0.653523 0.660612 0.910643
27.006001 8.499394 136.723099 0.256813 -0.092929 0.961974 0.660581 0.900344
26.577202 8.465794 136.392609 -0.583209 -0.227424 0.779809 0.657492 0.897199
26.148302 8.432394 136.062103 -0.583209 -0.227424 0.779809 0.654645 0.894297
26.678499 7.938694 136.314590 -0.583178 -0.227485 0.779809 0.660590 0.894302
3 0 1 2
3 3 2 1
3 2 3 4
3 5 4 3
3 4 5 6
3 6 5 7
3 8 7 5
3 7 8 9
3 10 9 8
3 9 10 11
3 12 11 10
3 13 11 12
3 11 13 9
3 1 14 3
3 15 3 14
3 3 15 5
3 5 15 8
3 16 8 15
3 8 16 10
3 10 16 17
3 17 16 18
3 19 18 16
3 18 19 20
3 20 19 21
3 21 19 22
3 22 19 15
3 16 15 19
3 15 14 22
3 23 22 14
3 22 23 24
3 24 23 25
3 14 25 23
3 26 27 28
3 29 28 27
3 30 28 29
3 28 30 31
3 32 31 30
3 33 31 32
3 31 33 34
3 35 36 37
3 37 36 29
3 29 36 30
3 38 30 36
3 30 38 39
3 40 41 42
3 42 41 43
3 44 43 41
3 45 43 44
3 43 45 46
3 46 45 47
3 48 47 45
3 47 48 49
3 50 49 48
3 49 50 51
3 52 51 50
3 51 52 53
3 54 53 52
3 40 53 54
3 53 40 55
3 55 40 42
3 55 42 56
3 43 56 42
3 46 56 43
3 47 56 46
3 49 56 47
3 51 56 49
3 53 56 51
3 56 53 55
3 57 58 59
3 59 58 60
3 61 60 58
3 60 61 62
3 63 62 61
3 62 63 64
3 64 63 65
3 66 65 63
3 65 66 67
3 68 67 66
3 69 70 71
3 72 71 70
3 71 72 73
3 74 73 72
3 73 74 75
3 76 75 74
3 75 76 77
3 78 77 76
3 77 78 79
3 80 79 78
3 81 79 80
3 79 81 82
3 83 82 81
3 82 83 84
3 85 84 83
3 84 85 86
3 87 86 85
3 86 87 88
3 65 88 87
3 88 65 67
3 70 89 72
3 90 72 89
3 72 90 74
3 91 74 90
3 74 91 76
3 92 76 91
3 76 92 78
3 93 78 92
3 94 78 93
3 78 94 80
3 95 80 94
3 80 95 81
3 81 95 83
3 96 83 95
3 97 83 96
3 83 97 85
3 98 85 97
3 85 98 87
3 64 87 98
3 87 64 65
3 64 98 62
3 99 62 98
3 62 99 60
3 100 60 99
3 60 100 59
3 59 100 101
3 102 101 100
3 101 102 103
3 104 103 102
3 103 104 105
3 106 105 104
3 105 106 107
3 108 107 106
3 107 108 109
3 109 108 110
3 111 110 108
3 112 110 111
3 110 112 113
3 114 113 112
3 113 114 115
3 115 114 116
3 117 116 114
3 116 117 118
3 118 117 119
3 120 119 117
3 119 120 121
3 121 120 89
3 89 120 90
3 122 90 120
3 90 122 91
3 91 122 92
3 123 92 122
3 124 92 123
3 92 124 93
3 125 93 124
3 93 125 94
3 126 94 125
3 94 126 127
3 128 127 126
3 127 128 94
3 94 128 95
3 95 128 129
3 126 129 128
3 129 126 130
3 108 130 126
3 106 130 108
3 131 130 106
3 130 131 129
3 106 129 131
3 129 106 132
3 104 132 106
3 132 104 133
3 133 104 134
3 102 134 104
3 100 134 102
3 99 134 100
3 134 99 135
3 136 135 99
3 135 136 137
3 99 137 136
3 98 137 99
3 137 98 138
3 97 138 98
3 138 97 134
3 96 134 97
3 134 96 133
3 133 96 132
3 95 132 96
3 132 95 129
3 120 117 122
3 114 122 117
3 112 122 114
3 122 112 123
3 111 123 112
3 123 111 124
3 124 111 125
3 108 125 111
3 125 108 126
3 137 138 135
3 134 135 138
3 139 140 141
3 142 141 140
3 141 142 143
3 144 143 142
3 145 143 144
3 143 145 146
3 147 146 145
3 146 147 148
3 149 150 143
3 141 143 150
3 151 152 153
3 154 153 152
3 153 154 155
3 155 154 156
3 157 156 154
3 156 157 158
3 159 158 157
3 160 158 159
3 158 160 156
3 161 162 163
3 164 163 162
3 163 164 165
3 165 164 166
3 167 166 164
3 166 167 168
3 154 168 167
3 152 168 154
3 168 152 169
3 170 169 152
3 171 169 170
3 169 171 168
3 164 162 167
3 157 167 162
3 167 157 154
